<svg width="1200" height="1200" viewBox="0 0 1200 1200" fill="none" xmlns="http://www.w3.org/2000/svg">
  <defs>
    <linearGradient id="bg" x1="140" y1="90" x2="1080" y2="1110" gradientUnits="userSpaceOnUse">
      <stop offset="0" stop-color="#0B1120"/>
      <stop offset="0.55" stop-color="#171A2F"/>
      <stop offset="1" stop-color="#271530"/>
    </linearGradient>
    <radialGradient id="glowA" cx="0" cy="0" r="1" gradientUnits="userSpaceOnUse" gradientTransform="translate(920 255) rotate(120) scale(335 300)">
      <stop stop-color="#F59E0B" stop-opacity="0.72"/>
      <stop offset="1" stop-color="#F59E0B" stop-opacity="0"/>
    </radialGradient>
    <radialGradient id="glowB" cx="0" cy="0" r="1" gradientUnits="userSpaceOnUse" gradientTransform="translate(250 950) rotate(-30) scale(360 315)">
      <stop stop-color="#38BDF8" stop-opacity="0.58"/>
      <stop offset="1" stop-color="#38BDF8" stop-opacity="0"/>
    </radialGradient>
    <linearGradient id="frame" x1="260" y1="252" x2="921" y2="949" gradientUnits="userSpaceOnUse">
      <stop stop-color="#FFFFFF" stop-opacity="0.55"/>
      <stop offset="1" stop-color="#FFFFFF" stop-opacity="0.12"/>
    </linearGradient>
    <linearGradient id="accent" x1="328" y1="670" x2="866" y2="670" gradientUnits="userSpaceOnUse">
      <stop stop-color="#F59E0B"/>
      <stop offset="1" stop-color="#38BDF8"/>
    </linearGradient>
    <filter id="blur" x="-80" y="-80" width="1360" height="1360" filterUnits="userSpaceOnUse" color-interpolation-filters="sRGB">
      <feGaussianBlur stdDeviation="42"/>
    </filter>
  </defs>

  <rect width="1200" height="1200" rx="44" fill="url(#bg)"/>

  <g filter="url(#blur)">
    <circle cx="920" cy="255" r="290" fill="url(#glowA)"/>
    <circle cx="250" cy="950" r="315" fill="url(#glowB)"/>
  </g>

  <path d="M126 292C251 250 355 267 452 347C547 426 638 448 744 407C856 363 949 383 1068 486" stroke="white" stroke-opacity="0.08" stroke-width="10" stroke-linecap="round"/>
  <path d="M143 874C271 935 391 931 487 863C579 799 684 767 799 795C905 821 991 797 1076 716" stroke="white" stroke-opacity="0.08" stroke-width="10" stroke-linecap="round"/>

  <rect x="258" y="252" width="684" height="694" rx="34" fill="#0E162B" fill-opacity="0.52" stroke="url(#frame)" stroke-width="3"/>
  <rect x="286" y="280" width="628" height="638" rx="22" fill="#0C1220" fill-opacity="0.18" stroke="white" stroke-opacity="0.08"/>

  <g opacity="0.72">
    <path d="M342 364H858" stroke="white" stroke-opacity="0.12" stroke-width="2"/>
    <path d="M342 405H858" stroke="white" stroke-opacity="0.07" stroke-width="2"/>
    <path d="M342 793H858" stroke="white" stroke-opacity="0.08" stroke-width="2"/>
  </g>

  <text x="340" y="345" fill="#F6E7C9" font-family="Segoe UI, Arial, sans-serif" font-size="34" font-weight="700" letter-spacing="10">SHOWREEL</text>

  <text x="330" y="515" fill="#F8FAFC" font-family="Segoe UI, Arial, sans-serif" font-size="126" font-weight="800" letter-spacing="2">MOTION</text>
  <text x="330" y="632" fill="url(#accent)" font-family="Segoe UI, Arial, sans-serif" font-size="106" font-weight="800" letter-spacing="1">GRAPHICS</text>
  <text x="330" y="734" fill="#CBD5E1" font-family="Segoe UI, Arial, sans-serif" font-size="62" font-weight="700" letter-spacing="12">DEMOREEL</text>

  <rect x="330" y="822" width="532" height="70" rx="35" fill="white" fill-opacity="0.06" stroke="white" stroke-opacity="0.14"/>
  <circle cx="390" cy="857" r="22" fill="#F59E0B"/>
  <path d="M382 844L406 857L382 870V844Z" fill="#0F172A"/>
  <text x="440" y="867" fill="#E2E8F0" font-family="Segoe UI, Arial, sans-serif" font-size="28" font-weight="600" letter-spacing="4">TITLE WORK  *  RHYTHM  *  TRANSITIONS</text>

  <text x="330" y="962" fill="#94A3B8" font-family="Segoe UI, Arial, sans-serif" font-size="24" font-weight="600" letter-spacing="5">VISUAL STORYTELLING FOR BRANDS, BROADCAST, AND DIGITAL EXPERIENCES</text>
</svg>
